<svg width="20" height="27" viewBox="0 0 20 27" fill="none" xmlns="http://www.w3.org/2000/svg">
<path d="M19.4329 0C19.7331 0 20 0.247706 20 0.526376V2.84862C20 3.12729 19.7331 3.375 19.4329 3.375H0.567138C0.266888 3.375 0 3.12729 0 2.84862V0.526376C0 0.247706 0.266888 0 0.567138 0H19.4329Z" fill="white"/>
<path d="M10.7301 7.36746C10.6472 7.19661 10.5144 7.05682 10.2157 7.05682H9.91703C9.65153 7.05682 9.50219 7.19661 9.40263 7.36746L0.0603302 26.27C-0.122201 26.6428 0.126706 27 0.574738 27H3.17996C3.66118 27 3.92668 26.7204 4.04284 26.4408L9.93362 14.1084H10.0166L15.9572 26.4408C16.1729 26.8291 16.372 27 16.82 27H19.4253C19.8733 27 20.1222 26.6272 19.9397 26.27L10.7301 7.36746Z" fill="white"/>
</svg>
